<svg width="1601" height="306" viewBox="0 0 1601 306" fill="none" xmlns="http://www.w3.org/2000/svg">
<path fill-rule="evenodd" clip-rule="evenodd" d="M170.951 10.2606L142.76 0L104.179 106H0L35 289H153L188 106.01V106H136.104L170.951 10.2606ZM136.104 106H104.179L55.2028 240.561L83.3936 250.822L136.104 106Z" fill="#E2495D"/>
<path d="M268.42 85.8H311.32C330.093 85.8 344.1 89.3933 353.34 96.58C362.58 103.62 367.2 115.793 367.2 133.1C367.2 144.393 365.513 153.633 362.14 160.82C358.913 167.86 353.267 172.993 345.2 176.22L370.06 264H337.5L316.16 182.38H300.76V264H268.42V85.8ZM311.1 162.14C320.34 162.14 326.867 160.013 330.68 155.76C334.64 151.507 336.62 144.54 336.62 134.86C336.62 125.473 334.86 118.653 331.34 114.4C327.967 110.147 321.807 108.02 312.86 108.02H300.76V162.14H311.1ZM414.185 265.98C408.759 265.98 403.919 264.513 399.665 261.58C395.559 258.647 392.332 254.907 389.985 250.36C387.785 245.667 386.685 240.827 386.685 235.84C386.685 226.013 388.959 217.947 393.505 211.64C398.199 205.187 403.919 200.2 410.665 196.68C417.559 193.16 426.652 189.273 437.945 185.02V174.02C437.945 168.153 437.212 163.9 435.745 161.26C434.425 158.473 431.785 157.08 427.825 157.08C421.079 157.08 417.559 161.773 417.265 171.16L416.825 178.86L388.445 177.76C388.885 163.093 392.479 152.313 399.225 145.42C406.119 138.38 416.459 134.86 430.245 134.86C442.712 134.86 451.952 138.307 457.965 145.2C463.979 151.947 466.985 161.553 466.985 174.02V232.76C466.985 241.853 467.719 252.267 469.185 264H442.345C440.879 256.08 439.852 249.993 439.265 245.74C437.505 251.46 434.499 256.3 430.245 260.26C426.139 264.073 420.785 265.98 414.185 265.98ZM425.185 243.76C427.679 243.76 430.025 242.88 432.225 241.12C434.572 239.36 436.479 237.453 437.945 235.4V199.76C430.172 204.307 424.379 208.707 420.565 212.96C416.752 217.067 414.845 222.273 414.845 228.58C414.845 233.273 415.725 237.013 417.485 239.8C419.392 242.44 421.959 243.76 425.185 243.76ZM523.558 265.98C512.851 265.98 504.051 263.12 497.158 257.4C490.265 251.68 485.351 243.32 482.418 232.32L504.638 223.74C508.011 237.967 514.171 245.08 523.118 245.08C526.491 245.08 529.058 244.2 530.818 242.44C532.725 240.68 533.678 238.26 533.678 235.18C533.678 231.807 532.651 228.727 530.598 225.94C528.545 223.007 524.878 219.34 519.598 214.94L504.418 201.74C497.965 196.46 493.198 191.327 490.118 186.34C487.038 181.353 485.498 175.267 485.498 168.08C485.498 158.107 488.871 150.113 495.618 144.1C502.511 137.94 511.165 134.86 521.578 134.86C531.551 134.86 539.691 137.867 545.998 143.88C552.305 149.747 556.411 157.74 558.318 167.86L538.738 176.22C537.565 170.353 535.585 165.587 532.798 161.92C530.158 158.107 526.711 156.2 522.458 156.2C519.378 156.2 516.885 157.153 514.978 159.06C513.218 160.967 512.338 163.387 512.338 166.32C512.338 168.667 513.365 171.16 515.418 173.8C517.471 176.44 520.551 179.52 524.658 183.04L540.058 197.12C546.658 202.84 551.718 208.34 555.238 213.62C558.905 218.753 560.738 224.987 560.738 232.32C560.738 243.027 557.218 251.313 550.178 257.18C543.285 263.047 534.411 265.98 523.558 265.98ZM577.104 136.84H607.024V146.52C615.091 138.747 623.744 134.86 632.984 134.86C643.251 134.86 650.511 139.113 654.764 147.62C659.017 156.127 661.144 166.027 661.144 177.32V220.44C661.144 234.08 658.724 245.08 653.884 253.44C649.191 261.8 641.711 265.98 631.444 265.98C623.231 265.98 615.091 262.167 607.024 254.54V305.8H577.104V136.84ZM620.224 245.08C624.477 245.08 627.337 243.027 628.804 238.92C630.417 234.813 631.224 229.02 631.224 221.54V175.78C631.224 169.18 630.417 164.047 628.804 160.38C627.191 156.713 624.257 154.88 620.004 154.88C615.604 154.88 611.277 156.713 607.024 160.38V240.68C611.131 243.613 615.531 245.08 620.224 245.08ZM736.513 265.98C728.153 265.98 719.94 262.167 711.873 254.54V264H682.173V85.8H711.873V146.52C719.94 138.747 728.593 134.86 737.833 134.86C748.1 134.86 755.36 139.113 759.613 147.62C763.866 156.127 765.993 166.027 765.993 177.32V220.44C765.993 234.08 763.573 245.08 758.733 253.44C754.04 261.8 746.633 265.98 736.513 265.98ZM725.073 245.08C729.473 245.08 732.406 243.027 733.873 238.92C735.34 234.813 736.073 229.02 736.073 221.54V175.78C736.073 169.327 735.266 164.267 733.653 160.6C732.04 156.787 729.18 154.88 725.073 154.88C720.82 154.88 716.42 156.64 711.873 160.16V240.68C715.98 243.613 720.38 245.08 725.073 245.08ZM825.077 265.98C810.997 265.98 800.657 262.093 794.057 254.32C787.457 246.4 784.157 234.74 784.157 219.34V181.5C784.157 165.953 787.457 154.293 794.057 146.52C800.803 138.747 811.143 134.86 825.077 134.86C839.45 134.86 849.57 138.893 855.437 146.96C861.45 155.027 864.457 167.2 864.457 183.48V201.74H813.857V226.82C813.857 232.98 814.737 237.453 816.497 240.24C818.403 243.027 821.337 244.42 825.297 244.42C829.11 244.42 831.823 243.1 833.437 240.46C835.197 237.673 836.077 233.493 836.077 227.92V217.14H864.237V225.94C864.237 238.993 860.937 248.967 854.337 255.86C847.737 262.607 837.983 265.98 825.077 265.98ZM836.077 187V174.9C836.077 168.3 835.27 163.607 833.657 160.82C832.043 157.887 829.183 156.42 825.077 156.42C820.823 156.42 817.89 157.96 816.277 161.04C814.663 164.12 813.857 169.84 813.857 178.2V187H836.077ZM885.42 136.84H915.34V156.42C919.594 148.94 923.92 143.587 928.32 140.36C932.72 136.987 937.634 135.3 943.06 135.3C944.967 135.3 946.507 135.447 947.68 135.74V166.76C942.987 165 938.88 164.12 935.36 164.12C927.44 164.12 920.767 168.227 915.34 176.44V264H885.42V136.84ZM962.979 136.84H992.899V156.42C997.152 148.94 1001.48 143.587 1005.88 140.36C1010.28 136.987 1015.19 135.3 1020.62 135.3C1022.53 135.3 1024.07 135.447 1025.24 135.74V166.76C1020.55 165 1016.44 164.12 1012.92 164.12C1005 164.12 998.326 168.227 992.899 176.44V264H962.979V136.84ZM1040.76 276.98C1048.68 276.98 1054.25 276.247 1057.48 274.78C1060.85 273.46 1062.54 270.82 1062.54 266.86C1062.54 264.22 1061 256.74 1057.92 244.42L1029.98 136.84H1059.02L1075.52 220.88L1089.82 136.84H1118.64L1088.94 269.06C1086.44 279.767 1081.68 287.32 1074.64 291.72C1067.74 296.267 1058.36 298.54 1046.48 298.54H1040.76V276.98ZM1176.73 245.52C1183.33 245.52 1188.24 245.007 1191.47 243.98C1194.7 242.807 1196.97 240.68 1198.29 237.6C1199.61 234.373 1200.27 229.607 1200.27 223.3V85.8H1232.61V224.18C1232.61 234.593 1231.44 243.027 1229.09 249.48C1226.74 255.787 1222.64 260.553 1216.77 263.78C1210.9 266.86 1202.76 268.4 1192.35 268.4H1176.73V245.52ZM1278.19 265.98C1271 265.98 1265.65 263.34 1262.13 258.06C1258.61 252.78 1256.85 246.107 1256.85 238.04V136.84H1286.55V232.54C1286.55 236.5 1287.21 239.507 1288.53 241.56C1289.85 243.613 1292.12 244.64 1295.35 244.64C1298.72 244.64 1303.2 242.66 1308.77 238.7V136.84H1338.69V264H1308.77V251.9C1298.94 261.287 1288.75 265.98 1278.19 265.98ZM1362.59 91.74H1392.51V116.6H1362.59V91.74ZM1362.59 136.84H1392.51V264H1362.59V136.84ZM1454.56 265.98C1440.34 265.98 1430 262.02 1423.54 254.1C1417.09 246.033 1413.86 234.52 1413.86 219.56V181.28C1413.86 166.173 1417.09 154.66 1423.54 146.74C1430 138.82 1440.34 134.86 1454.56 134.86C1468.06 134.86 1477.88 138.087 1484.04 144.54C1490.35 150.993 1493.5 160.82 1493.5 174.02V184.58H1465.34V173.36C1465.34 166.76 1464.54 162.213 1462.92 159.72C1461.46 157.227 1458.74 155.98 1454.78 155.98C1450.53 155.98 1447.6 157.52 1445.98 160.6C1444.52 163.68 1443.78 169.327 1443.78 177.54V224.18C1443.78 232.1 1444.59 237.527 1446.2 240.46C1447.96 243.393 1450.82 244.86 1454.78 244.86C1458.89 244.86 1461.68 243.54 1463.14 240.9C1464.61 238.113 1465.34 233.713 1465.34 227.7V214.06H1493.5V226.16C1493.5 239.213 1490.35 249.113 1484.04 255.86C1477.74 262.607 1467.91 265.98 1454.56 265.98ZM1551.89 265.98C1537.81 265.98 1527.47 262.093 1520.87 254.32C1514.27 246.4 1510.97 234.74 1510.97 219.34V181.5C1510.97 165.953 1514.27 154.293 1520.87 146.52C1527.62 138.747 1537.96 134.86 1551.89 134.86C1566.27 134.86 1576.39 138.893 1582.25 146.96C1588.27 155.027 1591.27 167.2 1591.27 183.48V201.74H1540.67V226.82C1540.67 232.98 1541.55 237.453 1543.31 240.24C1545.22 243.027 1548.15 244.42 1552.11 244.42C1555.93 244.42 1558.64 243.1 1560.25 240.46C1562.01 237.673 1562.89 233.493 1562.89 227.92V217.14H1591.05V225.94C1591.05 238.993 1587.75 248.967 1581.15 255.86C1574.55 262.607 1564.8 265.98 1551.89 265.98ZM1562.89 187V174.9C1562.89 168.3 1562.09 163.607 1560.47 160.82C1558.86 157.887 1556 156.42 1551.89 156.42C1547.64 156.42 1544.71 157.96 1543.09 161.04C1541.48 164.12 1540.67 169.84 1540.67 178.2V187H1562.89Z" fill="white"/>
</svg>
