<svg width="152" height="94" viewBox="0 0 152 94" fill="none" xmlns="http://www.w3.org/2000/svg">
<rect x="1" y="1" width="150" height="92" rx="7" stroke="#43B6E5" stroke-width="2"/>
<path fill-rule="evenodd" clip-rule="evenodd" d="M56.3745 33.9155C61.4661 33.9155 65.5935 29.6779 65.5935 24.4506C65.5935 19.2232 61.4661 14.9856 56.3745 14.9856C51.283 14.9856 47.1555 19.2232 47.1555 24.4506C47.1555 29.6779 51.283 33.9155 56.3745 33.9155ZM63.5063 32.8402C59.1016 35.1988 56.4857 35.575 51.15 34.3362C51.1275 34.4873 51.1022 34.6365 51.0744 34.784C50.5525 34.5227 49.9416 34.4375 49.3287 34.5882C47.9325 34.9315 47.0703 36.3701 47.4011 37.8044L48.0978 40.825C47.0597 42.0418 46.1011 42.7696 45.8238 42.96C45.8238 42.96 37.9774 38.7529 35.7847 45.694C35.5086 46.5677 35.341 47.3624 35.2762 48.0873C34.341 48.9028 33.6148 50.002 33.2413 51.3263L29.5955 64.2505C29.4901 63.8874 29.285 63.5627 29.0073 63.3161L29.007 63.317C28.752 63.0903 28.4359 62.9292 28.0794 62.8648C27.0301 62.6746 26.0294 63.394 25.8444 64.4713L24.4852 72.3857C24.3001 73.4631 25.0008 74.4903 26.0502 74.68C26.3245 74.7296 26.5955 74.7175 26.8495 74.6527C27.119 74.5841 27.3696 74.4571 27.5845 74.2825C27.8624 74.8491 28.3147 75.3278 28.902 75.6277C30.1921 76.2861 31.7568 75.8881 32.5985 74.6876L44.8942 57.1518C45.1617 56.7701 45.3842 56.3704 45.5631 55.9587C45.64 55.9743 45.7172 55.99 45.7948 56.0056C45.7534 55.9972 45.7122 55.9889 45.671 55.9806C45.635 55.9733 45.599 55.9659 45.5631 55.9587C46.9042 52.8716 45.7915 49.1157 42.8105 47.3664C42.1807 46.9968 41.5212 46.747 40.8547 46.6077C40.4595 46.525 40.0619 46.4813 39.6665 46.4744C38.0609 46.4464 36.4919 47.027 35.2762 48.0873C35.31 47.709 35.3719 47.3116 35.4626 46.8939C37.6901 45.3877 40.6708 45.1417 43.2172 46.636C46.5114 48.5691 47.7787 52.6829 46.387 56.1223C46.539 56.1518 46.6922 56.1811 46.8467 56.2103C48.0772 56.443 49.3829 56.2811 50.7111 55.8075C50.9674 55.7162 51.2247 55.6138 51.4823 55.4998L51.6738 56.3294C50.0392 57.0307 48.3742 57.3356 46.7734 57.0515L46.234 56.4746L45.8445 56.0587L46.7734 57.0515L51.9696 62.6086L51.9697 62.6095L52.9619 63.6703L54.6662 74.7881C54.8107 75.7312 55.6553 76.3887 56.579 76.2777C57.2053 76.202 57.7126 75.7931 57.955 75.2454C58.1928 75.42 58.4546 75.5201 58.7182 75.5542L58.7185 75.5533C59.531 75.6581 60.3613 75.1364 60.567 74.2324L61.0117 72.2784L61.0123 72.2792L63.4226 61.6878L63.422 61.6869L64.8429 55.4435L68.4441 34.6264C68.6707 33.317 67.768 32.0849 66.4798 31.9451C66.2381 31.9189 66.0013 31.9333 65.7755 31.983C64.8788 32.1807 64.1603 32.9369 64.0315 33.9196L62.7242 43.8925L61.4442 53.6575L60.5378 57.9788L58.1749 69.245L57.7011 71.504L57.2392 68.2447L57.491 68.5139L57.8576 66.7665L57.8574 66.7656L59.8783 57.1307L56.1474 52.3339C58.2014 50.4733 60.1305 48.1117 61.7234 45.5831C61.7037 45.6144 61.684 45.6456 61.6643 45.6767L63.2201 33.8073C63.2654 33.4619 63.364 33.1369 63.5063 32.8402ZM57.8574 66.7656L57.491 68.5139L57.239 68.2438L55.7088 57.4475L55.2068 54.2054C55.4542 54.0154 55.7003 53.8178 55.9448 53.6134L56.518 57.3154L56.5188 57.3208L56.5195 57.3263L57.8574 66.7656ZM58.7185 75.5533C58.4548 75.5193 58.1929 75.4196 57.955 75.2454C58.0873 74.9463 58.1407 74.6056 58.0911 74.2556L57.7012 71.5049L58.1749 69.245L58.1953 69.1491L58.9018 74.1344C58.9728 74.635 58.901 75.1221 58.7185 75.5533ZM52.9617 63.6695L52.1596 58.4369L51.6738 56.3294C51.4168 56.4397 51.1591 56.5409 50.9009 56.6307L51.355 58.5993L51.9696 62.6086L52.9617 63.6695ZM51.4823 55.4998L48.0978 40.825C47.8677 41.0948 47.6414 41.3413 47.4256 41.5625L50.7111 55.8075C50.9674 55.7162 51.2247 55.6138 51.4823 55.4998ZM26.8495 74.6527C26.438 73.808 26.3285 72.8127 26.6 71.8498L29.007 63.317C29.2848 63.5643 29.4897 63.8895 29.5948 64.253L27.386 72.0832C27.1729 72.8387 27.2597 73.6199 27.584 74.2816C27.3693 74.4562 27.119 74.5836 26.8495 74.6527ZM55.2068 54.2054L55.0606 53.2613C55.3068 53.064 55.5518 52.8591 55.7951 52.6469C55.9127 52.5443 56.0298 52.4395 56.1467 52.3336L56.6586 52.9918C56.1813 53.4228 55.6967 53.8291 55.2068 54.2054ZM55.7951 52.6469C55.5518 52.8591 55.3068 53.064 55.0606 53.2613L52.5069 36.7686C52.3677 35.8689 51.8092 35.1519 51.0744 34.784C51.1022 34.6365 51.1275 34.4873 51.15 34.3362C51.5193 34.422 51.8755 34.5006 52.2202 34.5708C52.7846 35.0891 53.1871 35.8033 53.3161 36.6365L55.7951 52.6469ZM68.5367 68.2632L64.0736 62.5249L61.6891 73.0033L62.4097 73.7739C63.7315 75.1873 65.8317 75.4705 67.464 74.4545C69.5676 73.1458 70.0716 70.2365 68.5367 68.2632Z" fill="#43B6E5"/>
<path fill-rule="evenodd" clip-rule="evenodd" d="M95.0322 36C91.7185 36 89.0322 38.6863 89.0322 42V54C89.0322 57.3137 91.7185 60 95.0322 60H114.043C117.357 60 120.043 57.3137 120.043 54V42C120.043 38.6863 117.357 36 114.043 36H95.0322ZM104.892 48.2186C105.087 48.107 105.087 47.893 104.892 47.7814L96.6587 43.0607C96.4061 42.916 96.0347 43.0462 96.0347 43.2793V52.7207C96.0347 52.9538 96.4061 53.084 96.6587 52.9393L100.775 50.5789L104.892 48.2186ZM111.04 43H113.04V53H111.04V43ZM110.039 43H108.039V53H110.039V43Z" fill="#43B6E5"/>
<rect x="16" y="83" width="111" height="1" fill="#43B6E5"/>
<ellipse cx="22.3856" cy="83.5" rx="1.47345" ry="1.5" fill="#43B6E5"/>
<path d="M136 84V86H134" stroke="#43B6E5"/>
<path d="M134 81H136V83" stroke="#43B6E5"/>
<path d="M131 83V81H133" stroke="#43B6E5"/>
<path d="M133 86H131V84" stroke="#43B6E5"/>
</svg>
