<svg width="350" height="222" viewBox="0 0 350 222" fill="none" xmlns="http://www.w3.org/2000/svg">
<path fill-rule="evenodd" clip-rule="evenodd" d="M4 0C1.79086 0 0 1.79086 0 4V218C0 220.209 1.79087 222 4.00001 222H346C348.209 222 350 220.209 350 218V4C350 1.79086 348.209 0 346 0H4ZM246 66H104V155H246V66ZM312 155C328.568 155 342 141.568 342 125V96C342 79.4316 328.568 66 312 66H254V155H312ZM301.681 153C311.825 141.746 318 126.844 318 110.5C318 94.1562 311.825 79.2539 301.681 68H256V93.0068L256.283 93.001L256.5 93C266.165 93 274 100.835 274 110.5C274 120.165 266.165 128 256.5 128C256.333 128 256.166 127.998 256 127.993V153H301.681ZM8 96C8 79.4316 21.4316 66 38 66H96V155H38C21.4316 155 8 141.568 8 125V96ZM32 110.5C32 94.1562 38.1748 79.2539 48.3188 68H94V93.0068C93.834 93.002 93.667 93 93.5 93C83.835 93 76 100.835 76 110.5C76 120.165 83.835 128 93.5 128C93.667 128 93.834 127.998 94 127.993V153H48.3188C38.1748 141.746 32 126.844 32 110.5Z" fill="white"/>
</svg>
