<svg width="296" height="160" viewBox="0 0 296 160" fill="none" xmlns="http://www.w3.org/2000/svg">
<g clip-path="url(#clip0_162:564)">
<path d="M296 0H0V159.115H296V0Z" fill="white"/>
<path d="M296 18.2471H0V83.7906H296V18.2471Z" fill="#E2495D"/>
<path d="M95.579 38.8298H61.7588V50.07H95.579V38.8298Z" fill="white"/>
<path d="M34.7029 67.4412C43.8797 67.4412 51.3189 60.056 51.3189 50.9459C51.3189 41.8357 43.8797 34.4505 34.7029 34.4505C25.5261 34.4505 18.0869 41.8357 18.0869 50.9459C18.0869 60.056 25.5261 67.4412 34.7029 67.4412Z" fill="white"/>
<path d="M279.678 28.4655H219.243V71.8205H279.678V28.4655Z" fill="white"/>
<path d="M76.4632 53.1356H61.7588V57.5149H76.4632V53.1356Z" fill="white"/>
<path d="M152.485 53.1356H120.87V57.5149H152.485V53.1356Z" fill="white"/>
<path d="M93.3733 59.2665H61.7588V63.6459H93.3733V59.2665Z" fill="white"/>
<path d="M118.665 53.1356H92.7852V57.5149H118.665V53.1356Z" fill="white"/>
<path d="M90.5795 53.1356H78.6689V57.5149H90.5795V53.1356Z" fill="white"/>
</g>
<rect x="230.482" y="62.0079" width="54.9881" height="94.7668" rx="5" fill="#282828"/>
<g clip-path="url(#clip1_162:564)">
<path d="M280.791 69.0277H235.162V150.925H280.791V69.0277Z" fill="white"/>
<path d="M280.791 74.6125H235.162V104.599H280.791V74.6125Z" fill="#E2495D"/>
<path d="M259.115 92.3983H238.367V95.2337H259.115V92.3983Z" fill="white"/>
<path d="M250.512 96.4366H238.367V99.272H250.512V96.4366Z" fill="white"/>
<path d="M274.718 96.4366H251.946V99.272H274.718V96.4366Z" fill="white"/>
<path d="M269.236 92.3983H260.802V95.2337H269.236V92.3983Z" fill="white"/>
<path d="M242.584 87.8444C244.913 87.8444 246.801 85.921 246.801 83.5484C246.801 81.1757 244.913 79.2523 242.584 79.2523C240.255 79.2523 238.367 81.1757 238.367 83.5484C238.367 85.921 240.255 87.8444 242.584 87.8444Z" fill="white"/>
<path d="M261.223 81.1426H248.825V85.8682H261.223V81.1426Z" fill="white"/>
</g>
<defs>
<clipPath id="clip0_162:564">
<rect width="296" height="159.115" fill="white"/>
</clipPath>
<clipPath id="clip1_162:564">
<rect width="45.6285" height="81.8972" fill="white" transform="translate(235.162 69.0277)"/>
</clipPath>
</defs>
</svg>
