<svg width="144" height="40" viewBox="0 0 144 40" fill="none" xmlns="http://www.w3.org/2000/svg">
<path fill-rule="evenodd" clip-rule="evenodd" d="M2.01801 10.0592C1.94523 9.58158 1.5367 9.22887 1.05626 9.22887H0.973215C0.371723 9.22887 -0.0856838 9.77229 0.0135844 10.369L4.79608 39.1151C4.87453 39.5867 5.28032 39.9322 5.75571 39.9322H21.1354C21.6107 39.9322 22.0166 39.5867 22.095 39.1151L26.8812 10.3468C26.9785 9.76172 26.5299 9.22887 25.9402 9.22887C25.469 9.22887 25.0685 9.57471 24.9971 10.0431L20.8922 36.9825C20.8194 37.4602 20.4109 37.8129 19.9304 37.8129H7.08227C6.60183 37.8129 6.1933 37.4602 6.12052 36.9825L2.01801 10.0592Z" fill="#6D85FF"/>
<path fill-rule="evenodd" clip-rule="evenodd" d="M26.2648 0.759402L24.1903 0L19.3897 13.2656H3.47266L7.0309 35.8115H19.9048L23.4631 13.2656H21.739L26.2648 0.759402ZM21.739 13.2656H19.3897L12.6287 31.949L14.7031 32.7084L21.739 13.2656Z" fill="#FFCC4A"/>
<path d="M45.6543 24.8916C45.6543 26.1514 45.4316 27.2559 44.9863 28.2051C44.541 29.1543 43.9023 29.8867 43.0703 30.4023C42.2441 30.918 41.2949 31.1758 40.2227 31.1758C39.1621 31.1758 38.2158 30.9209 37.3838 30.4111C36.5518 29.9014 35.9072 29.1748 35.4502 28.2314C34.9932 27.2822 34.7617 26.1924 34.7559 24.9619V24.3291C34.7559 23.0693 34.9814 21.9619 35.4326 21.0068C35.8896 20.0459 36.5312 19.3105 37.3574 18.8008C38.1895 18.2852 39.1387 18.0273 40.2051 18.0273C41.2715 18.0273 42.2178 18.2852 43.0439 18.8008C43.876 19.3105 44.5176 20.0459 44.9688 21.0068C45.4258 21.9619 45.6543 23.0664 45.6543 24.3203V24.8916ZM42.9824 24.3115C42.9824 22.9697 42.7422 21.9502 42.2617 21.2529C41.7812 20.5557 41.0957 20.207 40.2051 20.207C39.3203 20.207 38.6377 20.5527 38.1572 21.2441C37.6768 21.9297 37.4336 22.9375 37.4277 24.2676V24.8916C37.4277 26.1982 37.668 27.2119 38.1484 27.9326C38.6289 28.6533 39.3203 29.0137 40.2227 29.0137C41.1074 29.0137 41.7871 28.668 42.2617 27.9766C42.7363 27.2793 42.9766 26.2656 42.9824 24.9355V24.3115ZM52.7471 23.8721C52.4014 23.8252 52.0967 23.8018 51.833 23.8018C50.8721 23.8018 50.2422 24.127 49.9434 24.7773V31H47.4033V21.4902H49.8027L49.873 22.624C50.3828 21.751 51.0889 21.3145 51.9912 21.3145C52.2725 21.3145 52.5361 21.3525 52.7822 21.4287L52.7471 23.8721ZM59.2246 31C59.1074 30.7715 59.0225 30.4873 58.9697 30.1475C58.3545 30.833 57.5547 31.1758 56.5703 31.1758C55.6387 31.1758 54.8652 30.9062 54.25 30.3672C53.6406 29.8281 53.3359 29.1484 53.3359 28.3281C53.3359 27.3203 53.708 26.5469 54.4521 26.0078C55.2021 25.4688 56.2832 25.1963 57.6953 25.1904H58.8643V24.6455C58.8643 24.2061 58.75 23.8545 58.5215 23.5908C58.2988 23.3271 57.9443 23.1953 57.458 23.1953C57.0303 23.1953 56.6934 23.2979 56.4473 23.5029C56.207 23.708 56.0869 23.9893 56.0869 24.3467H53.5469C53.5469 23.7959 53.7168 23.2861 54.0566 22.8174C54.3965 22.3486 54.877 21.9824 55.498 21.7188C56.1191 21.4492 56.8164 21.3145 57.5898 21.3145C58.7617 21.3145 59.6904 21.6104 60.376 22.2021C61.0674 22.7881 61.4131 23.6143 61.4131 24.6807V28.8027C61.4189 29.7051 61.5449 30.3877 61.791 30.8506V31H59.2246ZM57.124 29.2334C57.499 29.2334 57.8447 29.1514 58.1611 28.9873C58.4775 28.8174 58.7119 28.5918 58.8643 28.3105V26.6758H57.915C56.6436 26.6758 55.9668 27.1152 55.8848 27.9941L55.876 28.1436C55.876 28.46 55.9873 28.7207 56.21 28.9258C56.4326 29.1309 56.7373 29.2334 57.124 29.2334ZM65.7021 21.4902L65.7812 22.5889C66.4609 21.7393 67.3721 21.3145 68.5146 21.3145C69.5225 21.3145 70.2725 21.6104 70.7646 22.2021C71.2568 22.7939 71.5088 23.6787 71.5205 24.8564V31H68.9805V24.918C68.9805 24.3789 68.8633 23.9893 68.6289 23.749C68.3945 23.5029 68.0049 23.3799 67.46 23.3799C66.7451 23.3799 66.209 23.6846 65.8516 24.2939V31H63.3115V21.4902H65.7021ZM73.085 26.1748C73.085 24.7158 73.4307 23.541 74.1221 22.6504C74.8193 21.7598 75.7568 21.3145 76.9346 21.3145C77.9775 21.3145 78.7891 21.6719 79.3691 22.3867L79.4746 21.4902H81.7773V30.6836C81.7773 31.5156 81.5869 32.2393 81.2061 32.8545C80.8311 33.4697 80.3008 33.9385 79.6152 34.2607C78.9297 34.583 78.127 34.7441 77.207 34.7441C76.5098 34.7441 75.8301 34.6035 75.168 34.3223C74.5059 34.0469 74.0049 33.6895 73.665 33.25L74.79 31.7031C75.4229 32.4121 76.1904 32.7666 77.0928 32.7666C77.7666 32.7666 78.291 32.585 78.666 32.2217C79.041 31.8643 79.2285 31.3545 79.2285 30.6924V30.1826C78.6426 30.8447 77.8721 31.1758 76.917 31.1758C75.7744 31.1758 74.8486 30.7305 74.1396 29.8398C73.4365 28.9434 73.085 27.7568 73.085 26.2803V26.1748ZM75.625 26.3594C75.625 27.2207 75.7979 27.8975 76.1436 28.3896C76.4893 28.876 76.9639 29.1191 77.5674 29.1191C78.3408 29.1191 78.8945 28.8291 79.2285 28.249V24.25C78.8887 23.6699 78.3408 23.3799 77.585 23.3799C76.9756 23.3799 76.4951 23.6289 76.1436 24.127C75.7979 24.625 75.625 25.3691 75.625 26.3594ZM88.1143 31.1758C86.7197 31.1758 85.583 30.748 84.7041 29.8926C83.8311 29.0371 83.3945 27.8975 83.3945 26.4736V26.2275C83.3945 25.2725 83.5791 24.4199 83.9482 23.6699C84.3174 22.9141 84.8389 22.334 85.5127 21.9297C86.1924 21.5195 86.9658 21.3145 87.833 21.3145C89.1338 21.3145 90.1562 21.7246 90.9004 22.5449C91.6504 23.3652 92.0254 24.5283 92.0254 26.0342V27.0713H85.9697C86.0518 27.6924 86.2979 28.1904 86.708 28.5654C87.124 28.9404 87.6484 29.1279 88.2812 29.1279C89.2598 29.1279 90.0244 28.7734 90.5752 28.0645L91.8232 29.4619C91.4424 30.001 90.9268 30.4229 90.2764 30.7275C89.626 31.0264 88.9053 31.1758 88.1143 31.1758ZM87.8242 23.3711C87.3203 23.3711 86.9102 23.541 86.5938 23.8809C86.2832 24.2207 86.084 24.707 85.9961 25.3398H89.5293V25.1377C89.5176 24.5752 89.3652 24.1416 89.0723 23.8369C88.7793 23.5264 88.3633 23.3711 87.8242 23.3711ZM98.415 26.5439H93.4668V24.4961H98.415V26.5439ZM105.78 18.2031H108.417V27.0625C108.417 27.877 108.235 28.5977 107.872 29.2246C107.515 29.8457 107.008 30.3262 106.352 30.666C105.695 31.0059 104.954 31.1758 104.128 31.1758C102.774 31.1758 101.72 30.833 100.964 30.1475C100.208 29.4561 99.8301 28.4805 99.8301 27.2207H102.484C102.484 27.8477 102.616 28.3105 102.88 28.6094C103.144 28.9082 103.56 29.0576 104.128 29.0576C104.632 29.0576 105.033 28.8848 105.332 28.5391C105.631 28.1934 105.78 27.7012 105.78 27.0625V18.2031ZM116.204 30.0332C115.577 30.7949 114.71 31.1758 113.603 31.1758C112.583 31.1758 111.804 30.8828 111.265 30.2969C110.731 29.7109 110.459 28.8525 110.447 27.7217V21.4902H112.987V27.6338C112.987 28.624 113.438 29.1191 114.341 29.1191C115.202 29.1191 115.794 28.8203 116.116 28.2227V21.4902H118.665V31H116.274L116.204 30.0332ZM123.262 31H120.713V21.4902H123.262V31ZM120.563 19.0293C120.563 18.6484 120.689 18.335 120.941 18.0889C121.199 17.8428 121.548 17.7197 121.987 17.7197C122.421 17.7197 122.767 17.8428 123.024 18.0889C123.282 18.335 123.411 18.6484 123.411 19.0293C123.411 19.416 123.279 19.7324 123.016 19.9785C122.758 20.2246 122.415 20.3477 121.987 20.3477C121.56 20.3477 121.214 20.2246 120.95 19.9785C120.692 19.7324 120.563 19.416 120.563 19.0293ZM129.317 29.1279C129.786 29.1279 130.167 28.999 130.46 28.7412C130.753 28.4834 130.905 28.1406 130.917 27.7129H133.299C133.293 28.3574 133.117 28.9492 132.771 29.4883C132.426 30.0215 131.951 30.4375 131.348 30.7363C130.75 31.0293 130.088 31.1758 129.361 31.1758C128.002 31.1758 126.93 30.7451 126.145 29.8838C125.359 29.0166 124.967 27.8213 124.967 26.2979V26.1309C124.967 24.666 125.356 23.4971 126.136 22.624C126.915 21.751 127.984 21.3145 129.344 21.3145C130.533 21.3145 131.485 21.6543 132.2 22.334C132.921 23.0078 133.287 23.9072 133.299 25.0322H130.917C130.905 24.54 130.753 24.1416 130.46 23.8369C130.167 23.5264 129.78 23.3711 129.3 23.3711C128.708 23.3711 128.26 23.5879 127.955 24.0215C127.656 24.4492 127.507 25.1465 127.507 26.1133V26.377C127.507 27.3555 127.656 28.0586 127.955 28.4863C128.254 28.9141 128.708 29.1279 129.317 29.1279ZM139.126 31.1758C137.731 31.1758 136.595 30.748 135.716 29.8926C134.843 29.0371 134.406 27.8975 134.406 26.4736V26.2275C134.406 25.2725 134.591 24.4199 134.96 23.6699C135.329 22.9141 135.851 22.334 136.524 21.9297C137.204 21.5195 137.978 21.3145 138.845 21.3145C140.146 21.3145 141.168 21.7246 141.912 22.5449C142.662 23.3652 143.037 24.5283 143.037 26.0342V27.0713H136.981C137.063 27.6924 137.31 28.1904 137.72 28.5654C138.136 28.9404 138.66 29.1279 139.293 29.1279C140.271 29.1279 141.036 28.7734 141.587 28.0645L142.835 29.4619C142.454 30.001 141.938 30.4229 141.288 30.7275C140.638 31.0264 139.917 31.1758 139.126 31.1758ZM138.836 23.3711C138.332 23.3711 137.922 23.541 137.605 23.8809C137.295 24.2207 137.096 24.707 137.008 25.3398H140.541V25.1377C140.529 24.5752 140.377 24.1416 140.084 23.8369C139.791 23.5264 139.375 23.3711 138.836 23.3711Z" fill="#FF8552"/>
</svg>
