<svg width="220" height="60" viewBox="0 0 220 60" fill="none" xmlns="http://www.w3.org/2000/svg">
<path d="M69.9102 37.5664C69.9102 39.5169 69.5729 41.2305 68.8984 42.707C68.224 44.1745 67.2578 45.3047 66 46.0977C64.7513 46.8815 63.3112 47.2734 61.6797 47.2734C60.0664 47.2734 58.6263 46.8815 57.3594 46.0977C56.1016 45.3047 55.1263 44.179 54.4336 42.7207C53.75 41.2624 53.4036 39.5807 53.3945 37.6758V36.5547C53.3945 34.6133 53.7363 32.8997 54.4199 31.4141C55.1126 29.9284 56.0833 28.7936 57.332 28.0098C58.5898 27.2168 60.0299 26.8203 61.6523 26.8203C63.2747 26.8203 64.7103 27.2122 65.959 27.9961C67.2168 28.7708 68.1875 29.8919 68.8711 31.3594C69.5547 32.8177 69.901 34.5176 69.9102 36.459V37.5664ZM66.4512 36.5273C66.4512 34.3216 66.0319 32.6309 65.1934 31.4551C64.3639 30.2793 63.1836 29.6914 61.6523 29.6914C60.1576 29.6914 58.9863 30.2793 58.1387 31.4551C57.3001 32.6217 56.8717 34.276 56.8535 36.418V37.5664C56.8535 39.7539 57.2773 41.4447 58.125 42.6387C58.9818 43.8327 60.1667 44.4297 61.6797 44.4297C63.2109 44.4297 64.3867 43.8464 65.207 42.6797C66.0365 41.513 66.4512 39.8086 66.4512 37.5664V36.5273ZM80.7793 35.2422C80.3418 35.1693 79.8906 35.1328 79.4258 35.1328C77.9036 35.1328 76.8783 35.7161 76.3496 36.8828V47H73.0273V32.207H76.1992L76.2812 33.8613C77.0833 32.5762 78.1953 31.9336 79.6172 31.9336C80.0911 31.9336 80.4831 31.9974 80.793 32.125L80.7793 35.2422ZM91.3066 47C91.1608 46.7174 91.0332 46.2572 90.9238 45.6191C89.8665 46.722 88.5723 47.2734 87.041 47.2734C85.5553 47.2734 84.3431 46.8496 83.4043 46.002C82.4655 45.1543 81.9961 44.1061 81.9961 42.8574C81.9961 41.2806 82.5794 40.0729 83.7461 39.2344C84.9219 38.3867 86.599 37.9629 88.7773 37.9629H90.8145V36.9922C90.8145 36.2266 90.6003 35.6159 90.1719 35.1602C89.7435 34.6953 89.0918 34.4629 88.2168 34.4629C87.4603 34.4629 86.8405 34.6543 86.3574 35.0371C85.8743 35.4108 85.6328 35.8893 85.6328 36.4727H82.3105C82.3105 35.6615 82.5794 34.9049 83.1172 34.2031C83.6549 33.4922 84.3841 32.9362 85.3047 32.5352C86.2344 32.1341 87.2689 31.9336 88.4082 31.9336C90.14 31.9336 91.5208 32.3711 92.5508 33.2461C93.5807 34.112 94.1094 35.3333 94.1367 36.9102V43.582C94.1367 44.9128 94.3236 45.9746 94.6973 46.7676V47H91.3066ZM87.6562 44.6074C88.3125 44.6074 88.9277 44.4479 89.502 44.1289C90.0853 43.8099 90.5228 43.3815 90.8145 42.8438V40.0547H89.0234C87.793 40.0547 86.8678 40.2689 86.248 40.6973C85.6283 41.1257 85.3184 41.7318 85.3184 42.5156C85.3184 43.1536 85.528 43.6641 85.9473 44.0469C86.3757 44.4206 86.9453 44.6074 87.6562 44.6074ZM100.699 32.207L100.795 33.916C101.889 32.5944 103.324 31.9336 105.102 31.9336C108.182 31.9336 109.75 33.6973 109.805 37.2246V47H106.482V37.416C106.482 36.4772 106.277 35.7845 105.867 35.3379C105.466 34.8822 104.805 34.6543 103.885 34.6543C102.545 34.6543 101.547 35.2604 100.891 36.4727V47H97.5684V32.207H100.699ZM112.621 39.4941C112.621 37.1973 113.159 35.3652 114.234 33.998C115.319 32.6217 116.755 31.9336 118.541 31.9336C120.227 31.9336 121.553 32.5215 122.52 33.6973L122.67 32.207H125.664V46.5488C125.664 48.4902 125.058 50.0215 123.846 51.1426C122.643 52.2637 121.016 52.8242 118.965 52.8242C117.88 52.8242 116.818 52.5964 115.779 52.1406C114.749 51.694 113.965 51.1061 113.428 50.377L115 48.3809C116.021 49.5931 117.279 50.1992 118.773 50.1992C119.876 50.1992 120.747 49.8984 121.385 49.2969C122.023 48.7044 122.342 47.8294 122.342 46.6719V45.6738C121.385 46.7402 120.109 47.2734 118.514 47.2734C116.782 47.2734 115.365 46.5853 114.262 45.209C113.168 43.8327 112.621 41.9277 112.621 39.4941ZM115.93 39.7812C115.93 41.2669 116.23 42.4382 116.832 43.2949C117.443 44.1426 118.286 44.5664 119.361 44.5664C120.701 44.5664 121.695 43.9922 122.342 42.8438V36.3359C121.713 35.2148 120.729 34.6543 119.389 34.6543C118.295 34.6543 117.443 35.0872 116.832 35.9531C116.23 36.819 115.93 38.0951 115.93 39.7812ZM135.604 47.2734C133.498 47.2734 131.789 46.6126 130.477 45.291C129.173 43.9603 128.521 42.1921 128.521 39.9863V39.5762C128.521 38.0996 128.804 36.7826 129.369 35.625C129.943 34.4583 130.745 33.5514 131.775 32.9043C132.805 32.2572 133.954 31.9336 135.221 31.9336C137.235 31.9336 138.789 32.5762 139.883 33.8613C140.986 35.1465 141.537 36.9648 141.537 39.3164V40.6562H131.871C131.971 41.8776 132.377 42.8438 133.088 43.5547C133.808 44.2656 134.71 44.6211 135.795 44.6211C137.317 44.6211 138.557 44.0059 139.514 42.7754L141.305 44.4844C140.712 45.3685 139.919 46.0566 138.926 46.5488C137.941 47.0319 136.834 47.2734 135.604 47.2734ZM135.207 34.5996C134.296 34.5996 133.557 34.9186 132.992 35.5566C132.436 36.1947 132.081 37.0833 131.926 38.2227H138.256V37.9766C138.183 36.8646 137.887 36.026 137.367 35.4609C136.848 34.8867 136.128 34.5996 135.207 34.5996ZM150.574 39.877H143.396V37.1973H150.574V39.877ZM161.785 27.0938H165.23V41.0527C165.23 42.9577 164.633 44.4707 163.439 45.5918C162.255 46.7129 160.687 47.2734 158.736 47.2734C156.658 47.2734 155.054 46.7493 153.924 45.7012C152.794 44.653 152.229 43.1947 152.229 41.3262H155.674C155.674 42.3835 155.934 43.181 156.453 43.7188C156.982 44.2474 157.743 44.5117 158.736 44.5117C159.666 44.5117 160.404 44.2064 160.951 43.5957C161.507 42.9759 161.785 42.1237 161.785 41.0391V27.0938ZM177.836 45.5508C176.861 46.6992 175.475 47.2734 173.68 47.2734C172.076 47.2734 170.859 46.804 170.029 45.8652C169.209 44.9264 168.799 43.5684 168.799 41.791V32.207H172.121V41.75C172.121 43.6276 172.9 44.5664 174.459 44.5664C176.072 44.5664 177.161 43.9876 177.727 42.8301V32.207H181.049V47H177.918L177.836 45.5508ZM187.967 47H184.645V32.207H187.967V47ZM184.439 28.3652C184.439 27.8548 184.599 27.431 184.918 27.0938C185.246 26.7565 185.711 26.5879 186.312 26.5879C186.914 26.5879 187.379 26.7565 187.707 27.0938C188.035 27.431 188.199 27.8548 188.199 28.3652C188.199 28.8665 188.035 29.2858 187.707 29.623C187.379 29.9512 186.914 30.1152 186.312 30.1152C185.711 30.1152 185.246 29.9512 184.918 29.623C184.599 29.2858 184.439 28.8665 184.439 28.3652ZM197.674 44.6211C198.503 44.6211 199.191 44.3796 199.738 43.8965C200.285 43.4134 200.577 42.8164 200.613 42.1055H203.744C203.708 43.026 203.421 43.8874 202.883 44.6895C202.345 45.4824 201.616 46.1113 200.695 46.5762C199.775 47.041 198.781 47.2734 197.715 47.2734C195.646 47.2734 194.005 46.6035 192.793 45.2637C191.581 43.9238 190.975 42.0736 190.975 39.7129V39.3711C190.975 37.1198 191.576 35.3197 192.779 33.9707C193.982 32.6126 195.623 31.9336 197.701 31.9336C199.46 31.9336 200.891 32.4486 201.994 33.4785C203.106 34.4993 203.689 35.8438 203.744 37.5117H200.613C200.577 36.6641 200.285 35.9668 199.738 35.4199C199.201 34.873 198.512 34.5996 197.674 34.5996C196.598 34.5996 195.769 34.9915 195.186 35.7754C194.602 36.5501 194.306 37.7305 194.297 39.3164V39.8496C194.297 41.4538 194.584 42.6523 195.158 43.4453C195.742 44.2292 196.58 44.6211 197.674 44.6211ZM212.768 47.2734C210.662 47.2734 208.953 46.6126 207.641 45.291C206.337 43.9603 205.686 42.1921 205.686 39.9863V39.5762C205.686 38.0996 205.968 36.7826 206.533 35.625C207.107 34.4583 207.91 33.5514 208.939 32.9043C209.969 32.2572 211.118 31.9336 212.385 31.9336C214.399 31.9336 215.953 32.5762 217.047 33.8613C218.15 35.1465 218.701 36.9648 218.701 39.3164V40.6562H209.035C209.135 41.8776 209.541 42.8438 210.252 43.5547C210.972 44.2656 211.874 44.6211 212.959 44.6211C214.481 44.6211 215.721 44.0059 216.678 42.7754L218.469 44.4844C217.876 45.3685 217.083 46.0566 216.09 46.5488C215.105 47.0319 213.998 47.2734 212.768 47.2734ZM212.371 34.5996C211.46 34.5996 210.721 34.9186 210.156 35.5566C209.6 36.1947 209.245 37.0833 209.09 38.2227H215.42V37.9766C215.347 36.8646 215.051 36.026 214.531 35.4609C214.012 34.8867 213.292 34.5996 212.371 34.5996Z" fill="#FF8552"/>
<path fill-rule="evenodd" clip-rule="evenodd" d="M2.98964 15.0888C2.88182 14.3723 2.27659 13.8433 1.56483 13.8433H1.4418C0.550701 13.8433 -0.126939 14.6584 0.020125 15.5534L7.1053 58.6727C7.22153 59.38 7.82268 59.8983 8.52697 59.8983H31.3117C32.0159 59.8983 32.6171 59.38 32.7333 58.6727L39.824 15.5202C39.9681 14.6425 39.3036 13.8433 38.4299 13.8433C37.7319 13.8433 37.1386 14.362 37.0328 15.0646L30.9514 55.4738C30.8436 56.1903 30.2384 56.7193 29.5265 56.7193H10.4923C9.78049 56.7193 9.17526 56.1903 9.06744 55.4738L2.98964 15.0888Z" fill="white"/>
<path fill-rule="evenodd" clip-rule="evenodd" d="M38.9106 1.1391L35.8373 0L28.7254 19.8983H5.14453L10.416 53.7172H29.4885L34.76 19.8983H32.2059L38.9106 1.1391ZM32.2059 19.8983H28.7254L18.709 47.9235L21.7821 49.0626L32.2059 19.8983Z" fill="#FFCC4A"/>
</svg>
