<svg width="1341" height="306" viewBox="0 0 1341 306" fill="none" xmlns="http://www.w3.org/2000/svg">
<path fill-rule="evenodd" clip-rule="evenodd" d="M173.949 11.3522L142.759 0L111.977 84.5735H0L35.1627 306H152.374L187.535 84.5845V84.5735H147.298L173.949 11.3522ZM147.298 84.5735H111.977L55.0005 241.114L86.1904 252.466L147.298 84.5735Z" fill="#FFCC4A"/>
<path d="M317.04 266.42C298.56 266.42 285.36 261.507 277.44 251.68C269.52 241.707 265.56 227.187 265.56 208.12V141.24C265.56 122.32 269.52 108.02 277.44 98.34C285.36 88.66 298.56 83.82 317.04 83.82C335.373 83.82 348.5 88.66 356.42 98.34C364.34 108.02 368.3 122.32 368.3 141.24V208.12C368.3 227.04 364.267 241.487 356.2 251.46C348.28 261.433 335.227 266.42 317.04 266.42ZM317.04 242.44C324.227 242.44 329.067 240.167 331.56 235.62C334.053 231.073 335.3 224.473 335.3 215.82V133.76C335.3 125.107 334.053 118.58 331.56 114.18C329.213 109.78 324.373 107.58 317.04 107.58C309.707 107.58 304.793 109.853 302.3 114.4C299.807 118.8 298.56 125.253 298.56 133.76V215.82C298.56 224.473 299.807 231.073 302.3 235.62C304.793 240.167 309.707 242.44 317.04 242.44ZM391.065 136.84H420.985V156.42C425.238 148.94 429.565 143.587 433.965 140.36C438.365 136.987 443.278 135.3 448.705 135.3C450.612 135.3 452.152 135.447 453.325 135.74V166.76C448.632 165 444.525 164.12 441.005 164.12C433.085 164.12 426.412 168.227 420.985 176.44V264H391.065V136.84ZM492.174 265.98C486.747 265.98 481.907 264.513 477.654 261.58C473.547 258.647 470.32 254.907 467.974 250.36C465.774 245.667 464.674 240.827 464.674 235.84C464.674 226.013 466.947 217.947 471.494 211.64C476.187 205.187 481.907 200.2 488.654 196.68C495.547 193.16 504.64 189.273 515.934 185.02V174.02C515.934 168.153 515.2 163.9 513.734 161.26C512.414 158.473 509.774 157.08 505.814 157.08C499.067 157.08 495.547 161.773 495.254 171.16L494.814 178.86L466.434 177.76C466.874 163.093 470.467 152.313 477.214 145.42C484.107 138.38 494.447 134.86 508.234 134.86C520.7 134.86 529.94 138.307 535.954 145.2C541.967 151.947 544.974 161.553 544.974 174.02V232.76C544.974 241.853 545.707 252.267 547.174 264H520.334C518.867 256.08 517.84 249.993 517.254 245.74C515.494 251.46 512.487 256.3 508.234 260.26C504.127 264.073 498.774 265.98 492.174 265.98ZM503.174 243.76C505.667 243.76 508.014 242.88 510.214 241.12C512.56 239.36 514.467 237.453 515.934 235.4V199.76C508.16 204.307 502.367 208.707 498.554 212.96C494.74 217.067 492.834 222.273 492.834 228.58C492.834 233.273 493.714 237.013 495.474 239.8C497.38 242.44 499.947 243.76 503.174 243.76ZM567.006 136.84H596.926V149.38C607.046 139.7 617.313 134.86 627.726 134.86C634.913 134.86 640.266 137.5 643.786 142.78C647.453 148.06 649.286 154.733 649.286 162.8V264H619.366V168.74C619.366 164.633 618.706 161.627 617.386 159.72C616.213 157.813 614.013 156.86 610.786 156.86C607.266 156.86 602.646 158.913 596.926 163.02V264H567.006V136.84ZM708.606 305.8C695.112 305.8 684.406 303.673 676.486 299.42C668.566 295.313 664.606 289.08 664.606 280.72C664.606 275.147 666.366 270.233 669.886 265.98C673.406 261.873 678.026 258.5 683.746 255.86C678.906 254.393 675.166 252.267 672.526 249.48C670.032 246.547 668.786 243.027 668.786 238.92C668.786 234.227 669.886 230.12 672.086 226.6C674.432 223.08 678.026 219.193 682.866 214.94C678.319 211.273 674.872 206.653 672.526 201.08C670.326 195.36 669.226 188.173 669.226 179.52C669.226 165 672.672 153.927 679.566 146.3C686.606 138.673 696.799 134.86 710.146 134.86C723.052 134.86 732.439 138.82 738.306 146.74C739.626 144.687 741.752 142.413 744.686 139.92C747.619 137.427 750.919 135.3 754.586 133.54L758.766 131.78L765.806 147.84C763.166 148.573 759.572 149.893 755.026 151.8C750.479 153.56 747.179 155.1 745.126 156.42C746.446 159.353 747.546 163.02 748.426 167.42C749.306 171.82 749.746 176 749.746 179.96C749.746 193.893 746.519 204.747 740.066 212.52C733.612 220.147 723.639 223.96 710.146 223.96C704.279 223.96 698.559 223.08 692.986 221.32C690.492 224.987 689.246 227.92 689.246 230.12C689.246 231.88 690.126 233.273 691.886 234.3C693.646 235.18 696.579 235.84 700.686 236.28L727.306 238.92C747.839 241.12 758.106 251.827 758.106 271.04C758.106 282.627 754.072 291.28 746.006 297C738.086 302.867 725.619 305.8 708.606 305.8ZM710.146 205.04C715.132 205.04 718.432 203.133 720.046 199.32C721.659 195.507 722.466 188.907 722.466 179.52C722.466 170.28 721.659 163.68 720.046 159.72C718.432 155.76 715.132 153.78 710.146 153.78C705.159 153.78 701.786 155.76 700.026 159.72C698.266 163.533 697.386 170.133 697.386 179.52C697.386 188.32 698.266 194.773 700.026 198.88C701.786 202.987 705.159 205.04 710.146 205.04ZM711.906 283.36C720.266 283.36 726.426 282.48 730.386 280.72C734.492 279.107 736.546 276.247 736.546 272.14C736.546 268.62 735.226 265.98 732.586 264.22C730.092 262.607 725.326 261.433 718.286 260.7L696.506 258.72C693.719 261.067 691.592 263.267 690.126 265.32C688.659 267.52 687.926 269.94 687.926 272.58C687.926 276.247 689.759 278.96 693.426 280.72C697.092 282.48 703.252 283.36 711.906 283.36ZM812.401 265.98C798.321 265.98 787.981 262.093 781.381 254.32C774.781 246.4 771.481 234.74 771.481 219.34V181.5C771.481 165.953 774.781 154.293 781.381 146.52C788.128 138.747 798.468 134.86 812.401 134.86C826.774 134.86 836.894 138.893 842.761 146.96C848.774 155.027 851.781 167.2 851.781 183.48V201.74H801.181V226.82C801.181 232.98 802.061 237.453 803.821 240.24C805.728 243.027 808.661 244.42 812.621 244.42C816.434 244.42 819.148 243.1 820.761 240.46C822.521 237.673 823.401 233.493 823.401 227.92V217.14H851.561V225.94C851.561 238.993 848.261 248.967 841.661 255.86C835.061 262.607 825.308 265.98 812.401 265.98ZM823.401 187V174.9C823.401 168.3 822.594 163.607 820.981 160.82C819.368 157.887 816.508 156.42 812.401 156.42C808.148 156.42 805.214 157.96 803.601 161.04C801.988 164.12 801.181 169.84 801.181 178.2V187H823.401ZM916.341 245.52C922.941 245.52 927.854 245.007 931.081 243.98C934.307 242.807 936.581 240.68 937.901 237.6C939.221 234.373 939.881 229.607 939.881 223.3V85.8H972.221V224.18C972.221 234.593 971.047 243.027 968.701 249.48C966.354 255.787 962.247 260.553 956.381 263.78C950.514 266.86 942.374 268.4 931.961 268.4H916.341V245.52ZM1017.8 265.98C1010.61 265.98 1005.26 263.34 1001.74 258.06C998.218 252.78 996.458 246.107 996.458 238.04V136.84H1026.16V232.54C1026.16 236.5 1026.82 239.507 1028.14 241.56C1029.46 243.613 1031.73 244.64 1034.96 244.64C1038.33 244.64 1042.81 242.66 1048.38 238.7V136.84H1078.3V264H1048.38V251.9C1038.55 261.287 1028.36 265.98 1017.8 265.98ZM1102.2 91.74H1132.12V116.6H1102.2V91.74ZM1102.2 136.84H1132.12V264H1102.2V136.84ZM1194.17 265.98C1179.95 265.98 1169.61 262.02 1163.15 254.1C1156.7 246.033 1153.47 234.52 1153.47 219.56V181.28C1153.47 166.173 1156.7 154.66 1163.15 146.74C1169.61 138.82 1179.95 134.86 1194.17 134.86C1207.67 134.86 1217.49 138.087 1223.65 144.54C1229.96 150.993 1233.11 160.82 1233.11 174.02V184.58H1204.95V173.36C1204.95 166.76 1204.15 162.213 1202.53 159.72C1201.07 157.227 1198.35 155.98 1194.39 155.98C1190.14 155.98 1187.21 157.52 1185.59 160.6C1184.13 163.68 1183.39 169.327 1183.39 177.54V224.18C1183.39 232.1 1184.2 237.527 1185.81 240.46C1187.57 243.393 1190.43 244.86 1194.39 244.86C1198.5 244.86 1201.29 243.54 1202.75 240.9C1204.22 238.113 1204.95 233.713 1204.95 227.7V214.06H1233.11V226.16C1233.11 239.213 1229.96 249.113 1223.65 255.86C1217.35 262.607 1207.52 265.98 1194.17 265.98ZM1291.5 265.98C1277.42 265.98 1267.08 262.093 1260.48 254.32C1253.88 246.4 1250.58 234.74 1250.58 219.34V181.5C1250.58 165.953 1253.88 154.293 1260.48 146.52C1267.23 138.747 1277.57 134.86 1291.5 134.86C1305.88 134.86 1316 138.893 1321.86 146.96C1327.88 155.027 1330.88 167.2 1330.88 183.48V201.74H1280.28V226.82C1280.28 232.98 1281.16 237.453 1282.92 240.24C1284.83 243.027 1287.76 244.42 1291.72 244.42C1295.54 244.42 1298.25 243.1 1299.86 240.46C1301.62 237.673 1302.5 233.493 1302.5 227.92V217.14H1330.66V225.94C1330.66 238.993 1327.36 248.967 1320.76 255.86C1314.16 262.607 1304.41 265.98 1291.5 265.98ZM1302.5 187V174.9C1302.5 168.3 1301.7 163.607 1300.08 160.82C1298.47 157.887 1295.61 156.42 1291.5 156.42C1287.25 156.42 1284.32 157.96 1282.7 161.04C1281.09 164.12 1280.28 169.84 1280.28 178.2V187H1302.5Z" fill="white"/>
</svg>
