<svg width="800" height="200" viewBox="0 0 800 200" fill="none" xmlns="http://www.w3.org/2000/svg">
<path fill-rule="evenodd" clip-rule="evenodd" d="M200 100C200 155.229 155.229 200 100 200C44.7715 200 0 155.229 0 100C0 44.7715 44.7715 0 100 0C155.229 0 200 44.7715 200 100ZM500 100C500 155.229 455.229 200 400 200C344.771 200 300 155.229 300 100C300 44.7715 344.771 0 400 0C455.229 0 500 44.7715 500 100ZM700 200C755.229 200 800 155.229 800 100C800 44.7715 755.229 0 700 0C644.771 0 600 44.7715 600 100C600 155.229 644.771 200 700 200Z" fill="black"/>
</svg>
