<svg width="152" height="94" viewBox="0 0 152 94" fill="none" xmlns="http://www.w3.org/2000/svg">
<rect x="1" y="1" width="150" height="92" rx="7" stroke="#1E2026" stroke-width="2"/>
<path fill-rule="evenodd" clip-rule="evenodd" d="M56.3542 33.9152C61.4439 33.9152 65.5699 29.6777 65.5699 24.4503C65.5699 19.2229 61.4439 14.9854 56.3542 14.9854C51.2645 14.9854 47.1385 19.2229 47.1385 24.4503C47.1385 29.6777 51.2645 33.9152 56.3542 33.9152ZM63.4835 32.8399C59.0803 35.1985 56.4654 35.5747 51.1315 34.336C51.1091 34.4871 51.0838 34.6363 51.0561 34.7837C50.5343 34.5225 49.9236 34.4373 49.311 34.588C47.9153 34.9313 47.0534 36.3698 47.3841 37.8041L48.0805 40.8248C47.0428 42.0415 46.0845 42.7694 45.8073 42.9597C45.8073 42.9597 37.9637 38.7526 35.7718 45.6937C35.4958 46.5675 35.3283 47.3622 35.2635 48.0871C34.3287 48.9025 33.6027 50.0017 33.2293 51.3261L29.5849 64.2502C29.4795 63.8872 29.2745 63.5624 28.9968 63.3159L28.9965 63.3168C28.7417 63.09 28.4257 62.929 28.0693 62.8646C27.0204 62.6744 26.0201 63.3937 25.8351 64.4711L24.4764 72.3855C24.2914 73.4628 24.9918 74.4901 26.0408 74.6798C26.3151 74.7294 26.586 74.7172 26.8399 74.6524C27.1093 74.5839 27.3598 74.4568 27.5746 74.2823C27.8524 74.8489 28.3045 75.3276 28.8916 75.6275C30.1812 76.2859 31.7453 75.8879 32.5867 74.6874L44.878 57.1515C45.1455 56.7699 45.3679 56.3701 45.5467 55.9584C45.6236 55.9741 45.7007 55.9897 45.7783 56.0054C45.7369 55.997 45.6957 55.9887 45.6546 55.9804C45.6185 55.973 45.5826 55.9657 45.5467 55.9584C46.8873 52.8713 45.775 49.1155 42.7951 47.3661C42.1656 46.9965 41.5063 46.7467 40.84 46.6074C40.445 46.5247 40.0475 46.481 39.6522 46.4742C38.0472 46.4462 36.4788 47.0268 35.2635 48.0871C35.2973 47.7087 35.3592 47.3114 35.4498 46.8937C37.6765 45.3875 40.6562 45.1414 43.2016 46.6357C46.4946 48.5688 47.7615 52.6827 46.3703 56.1221C46.5222 56.1515 46.6754 56.1809 46.8298 56.2101C48.0599 56.4428 49.3651 56.2808 50.6929 55.8072C50.949 55.7159 51.2062 55.6136 51.4637 55.4996L51.6552 56.3291C50.0212 57.0304 48.3568 57.3353 46.7566 57.0512L46.2173 56.4743L45.828 56.0584L46.7566 57.0512L51.9509 62.6084L51.951 62.6092L52.9428 63.6701L54.6465 74.7879C54.791 75.731 55.6352 76.3885 56.5587 76.2775C57.1847 76.2017 57.6918 75.7929 57.9341 75.2452C58.1719 75.4197 58.4335 75.5198 58.697 75.5539L58.6973 75.553C59.5095 75.6578 60.3396 75.1362 60.5452 74.2322L60.9897 72.2782L60.9904 72.279L63.3998 61.6875L63.3992 61.6867L64.8195 55.4432L68.4195 34.6261C68.646 33.3167 67.7436 32.0847 66.4559 31.9449C66.2142 31.9187 65.9775 31.933 65.7518 31.9828C64.8554 32.1805 64.1371 32.9366 64.0084 33.9194L62.7016 43.8923L61.4221 53.6572L60.516 57.9786L58.154 69.2448L57.6804 71.5037L57.2186 68.2444L57.4703 68.5137L57.8368 66.7662L57.8366 66.7654L59.8567 57.1305L56.1272 52.3336C58.1805 50.473 60.1089 48.1115 61.7011 45.5829C61.6815 45.6141 61.6618 45.6453 61.6421 45.6765L63.1973 33.8071C63.2426 33.4617 63.3412 33.1367 63.4835 32.8399ZM57.8366 66.7654L57.4703 68.5137L57.2184 68.2436L55.6887 57.4472L55.1869 54.2051C55.4343 54.0151 55.6803 53.8176 55.9246 53.6131L56.4976 57.3152L56.4984 57.3206L56.4992 57.3261L57.8366 66.7654ZM58.6973 75.553C58.4337 75.519 58.172 75.4193 57.9341 75.2452C58.0664 74.9461 58.1198 74.6053 58.0701 74.2553L57.6804 71.5046L58.154 69.2448L58.1743 69.1488L58.8806 74.1342C58.9515 74.6348 58.8798 75.1219 58.6973 75.553ZM52.9427 63.6693L52.1409 58.4366L51.6552 56.3291C51.3983 56.4394 51.1407 56.5406 50.8826 56.6305L51.3365 58.599L51.9509 62.6084L52.9427 63.6693ZM51.4637 55.4996L48.0805 40.8248C47.8504 41.0945 47.6242 41.341 47.4085 41.5622L50.6929 55.8072C50.949 55.7159 51.2062 55.6136 51.4637 55.4996ZM26.8399 74.6524C26.4285 73.8077 26.3191 72.8124 26.5905 71.8495L28.9965 63.3168C29.2742 63.5641 29.4791 63.8893 29.5841 64.2527L27.3761 72.083C27.1632 72.8385 27.2499 73.6197 27.5741 74.2814C27.3595 74.4559 27.1092 74.5834 26.8399 74.6524ZM55.1869 54.2051L55.0408 53.261C55.2869 53.0638 55.5318 52.8588 55.775 52.6466C55.8926 52.5441 56.0096 52.4392 56.1264 52.3334L56.6382 52.9916C56.1611 53.4226 55.6766 53.8288 55.1869 54.2051ZM55.775 52.6466C55.5318 52.8588 55.2869 53.0638 55.0408 53.261L52.488 36.7683C52.3488 35.8687 51.7905 35.1516 51.0561 34.7837C51.0838 34.6363 51.1091 34.4871 51.1315 34.336C51.5007 34.4217 51.8568 34.5004 52.2014 34.5705C52.7656 35.0889 53.168 35.803 53.2969 36.6363L55.775 52.6466ZM68.5121 68.2629L64.0506 62.5247L61.6669 73.003L62.3872 73.7737C63.7086 75.1871 65.808 75.4702 67.4397 74.4543C69.5426 73.1456 70.0463 70.2363 68.5121 68.2629Z" fill="#1E2026"/>
<path fill-rule="evenodd" clip-rule="evenodd" d="M95 35C91.6863 35 89 37.6863 89 41V53C89 56.3137 91.6863 59 95 59H114C117.314 59 120 56.3137 120 53V41C120 37.6863 117.314 35 114 35H95ZM104.854 47.2186C105.049 47.107 105.049 46.893 104.854 46.7814L96.6238 42.0607C96.3713 41.916 96 42.0462 96 42.2793V51.7207C96 51.9538 96.3713 52.084 96.6238 51.9393L100.739 49.5789L104.854 47.2186ZM111 42H113V52H111V42ZM110 42H108V52H110V42Z" fill="#1E2026"/>
<rect x="16" y="83" width="111" height="1" fill="#1E2026"/>
<ellipse cx="22.0125" cy="83.5" rx="1.3875" ry="1.5" fill="#1E2026"/>
<path d="M136 84V86H134" stroke="#1E2026"/>
<path d="M134 81H136V83" stroke="#1E2026"/>
<path d="M131 83V81H133" stroke="#1E2026"/>
<path d="M133 86H131V84" stroke="#1E2026"/>
</svg>
