<svg width="152" height="94" viewBox="0 0 152 94" fill="none" xmlns="http://www.w3.org/2000/svg">
<rect x="1" y="1" width="150" height="92" rx="7" stroke="white" stroke-width="2"/>
<path fill-rule="evenodd" clip-rule="evenodd" d="M56.3745 33.9152C61.4661 33.9152 65.5935 29.6777 65.5935 24.4503C65.5935 19.2229 61.4661 14.9854 56.3745 14.9854C51.283 14.9854 47.1555 19.2229 47.1555 24.4503C47.1555 29.6777 51.283 33.9152 56.3745 33.9152ZM63.5063 32.8399C59.1016 35.1985 56.4857 35.5747 51.15 34.336C51.1275 34.4871 51.1022 34.6363 51.0744 34.7837C50.5525 34.5225 49.9416 34.4373 49.3287 34.588C47.9325 34.9313 47.0703 36.3698 47.4011 37.8041L48.0978 40.8248C47.0597 42.0415 46.1011 42.7694 45.8238 42.9597C45.8238 42.9597 37.9774 38.7526 35.7847 45.6937C35.5086 46.5675 35.341 47.3622 35.2762 48.0871C34.341 48.9025 33.6148 50.0017 33.2413 51.3261L29.5955 64.2502C29.4901 63.8872 29.285 63.5624 29.0073 63.3159L29.007 63.3168C28.752 63.09 28.4359 62.929 28.0794 62.8646C27.0301 62.6744 26.0294 63.3937 25.8444 64.4711L24.4852 72.3855C24.3001 73.4628 25.0008 74.4901 26.0502 74.6798C26.3245 74.7294 26.5955 74.7172 26.8495 74.6524C27.119 74.5839 27.3696 74.4568 27.5845 74.2823C27.8624 74.8489 28.3147 75.3276 28.902 75.6275C30.1921 76.2859 31.7568 75.8879 32.5985 74.6874L44.8942 57.1515C45.1617 56.7699 45.3842 56.3701 45.5631 55.9584C45.64 55.9741 45.7172 55.9897 45.7948 56.0054C45.7534 55.997 45.7122 55.9887 45.671 55.9804C45.635 55.973 45.599 55.9657 45.5631 55.9584C46.9042 52.8713 45.7915 49.1155 42.8105 47.3661C42.1807 46.9965 41.5212 46.7467 40.8547 46.6074C40.4595 46.5247 40.0619 46.481 39.6665 46.4742C38.0609 46.4462 36.4919 47.0268 35.2762 48.0871C35.31 47.7087 35.3719 47.3114 35.4626 46.8937C37.6901 45.3875 40.6708 45.1414 43.2172 46.6357C46.5114 48.5688 47.7787 52.6827 46.387 56.1221C46.539 56.1515 46.6922 56.1809 46.8467 56.2101C48.0772 56.4428 49.3829 56.2808 50.7111 55.8072C50.9674 55.7159 51.2247 55.6136 51.4823 55.4996L51.6738 56.3291C50.0392 57.0304 48.3742 57.3353 46.7734 57.0512L46.234 56.4743L45.8445 56.0584L46.7734 57.0512L51.9696 62.6084L51.9697 62.6092L52.9619 63.6701L54.6662 74.7879C54.8107 75.731 55.6553 76.3885 56.579 76.2775C57.2053 76.2017 57.7126 75.7929 57.955 75.2452C58.1928 75.4197 58.4546 75.5198 58.7182 75.5539L58.7185 75.553C59.531 75.6578 60.3613 75.1362 60.567 74.2322L61.0117 72.2782L61.0123 72.279L63.4226 61.6875L63.422 61.6867L64.8429 55.4432L68.4441 34.6261C68.6707 33.3167 67.768 32.0847 66.4798 31.9449C66.2381 31.9187 66.0013 31.933 65.7755 31.9828C64.8788 32.1805 64.1603 32.9366 64.0315 33.9194L62.7242 43.8923L61.4442 53.6572L60.5378 57.9786L58.1749 69.2448L57.7011 71.5037L57.2392 68.2444L57.491 68.5137L57.8576 66.7662L57.8574 66.7654L59.8783 57.1305L56.1474 52.3336C58.2014 50.473 60.1305 48.1115 61.7234 45.5829C61.7037 45.6141 61.684 45.6453 61.6643 45.6765L63.2201 33.8071C63.2654 33.4617 63.364 33.1367 63.5063 32.8399ZM57.8574 66.7654L57.491 68.5137L57.239 68.2436L55.7088 57.4472L55.2068 54.2051C55.4542 54.0151 55.7003 53.8176 55.9448 53.6131L56.518 57.3152L56.5188 57.3206L56.5195 57.3261L57.8574 66.7654ZM58.7185 75.553C58.4548 75.519 58.1929 75.4193 57.955 75.2452C58.0873 74.9461 58.1407 74.6053 58.0911 74.2553L57.7012 71.5046L58.1749 69.2448L58.1953 69.1488L58.9018 74.1342C58.9728 74.6348 58.901 75.1219 58.7185 75.553ZM52.9617 63.6693L52.1596 58.4366L51.6738 56.3291C51.4168 56.4394 51.1591 56.5406 50.9009 56.6305L51.355 58.599L51.9696 62.6084L52.9617 63.6693ZM51.4823 55.4996L48.0978 40.8248C47.8677 41.0945 47.6414 41.341 47.4256 41.5622L50.7111 55.8072C50.9674 55.7159 51.2247 55.6136 51.4823 55.4996ZM26.8495 74.6524C26.438 73.8077 26.3285 72.8124 26.6 71.8495L29.007 63.3168C29.2848 63.5641 29.4897 63.8893 29.5948 64.2527L27.386 72.083C27.1729 72.8385 27.2597 73.6197 27.584 74.2814C27.3693 74.4559 27.119 74.5834 26.8495 74.6524ZM55.2068 54.2051L55.0606 53.261C55.3068 53.0638 55.5518 52.8588 55.7951 52.6466C55.9127 52.5441 56.0298 52.4392 56.1467 52.3334L56.6586 52.9916C56.1813 53.4226 55.6967 53.8288 55.2068 54.2051ZM55.7951 52.6466C55.5518 52.8588 55.3068 53.0638 55.0606 53.261L52.5069 36.7683C52.3677 35.8687 51.8092 35.1516 51.0744 34.7837C51.1022 34.6363 51.1275 34.4871 51.15 34.336C51.5193 34.4217 51.8755 34.5004 52.2202 34.5705C52.7846 35.0889 53.1871 35.803 53.3161 36.6363L55.7951 52.6466ZM68.5367 68.2629L64.0736 62.5247L61.6891 73.003L62.4097 73.7737C63.7315 75.1871 65.8317 75.4702 67.464 74.4543C69.5676 73.1456 70.0716 70.2363 68.5367 68.2629Z" fill="white"/>
<path fill-rule="evenodd" clip-rule="evenodd" d="M95.0322 36C91.7185 36 89.0322 38.6863 89.0322 42V54C89.0322 57.3137 91.7185 60 95.0322 60H114.043C117.357 60 120.043 57.3137 120.043 54V42C120.043 38.6863 117.357 36 114.043 36H95.0322ZM104.892 48.2186C105.087 48.107 105.087 47.893 104.892 47.7814L96.6587 43.0607C96.4061 42.916 96.0347 43.0462 96.0347 43.2793V52.7207C96.0347 52.9538 96.4061 53.084 96.6587 52.9393L100.775 50.5789L104.892 48.2186ZM111.04 43H113.04V53H111.04V43ZM110.039 43H108.039V53H110.039V43Z" fill="white"/>
<rect x="16" y="83" width="111" height="1" fill="white"/>
<ellipse cx="22.3856" cy="83.5" rx="1.47345" ry="1.5" fill="white"/>
<path d="M136 84V86H134" stroke="white"/>
<path d="M134 81H136V83" stroke="white"/>
<path d="M131 83V81H133" stroke="white"/>
<path d="M133 86H131V84" stroke="white"/>
</svg>
